<mxfile host="app.diagrams.net" agent="Mozilla/5.0 (Windows NT 10.0; Win64; x64) AppleWebKit/537.36 (KHTML, like Gecko) Chrome/134.0.0.0 Safari/537.36" version="26.1.1">
  <diagram name="第 1 页" id="xxBF5ol8PT6a56aNci-O">
    <mxGraphModel dx="748" dy="372" grid="1" gridSize="10" guides="1" tooltips="1" connect="1" arrows="1" fold="1" page="1" pageScale="1" pageWidth="827" pageHeight="1169" math="0" shadow="0">
      <root>
        <mxCell id="0" />
        <mxCell id="1" parent="0" />
        <mxCell id="FpNi_09DiMc6DCRJbx8O-4" value="" style="rounded=1;whiteSpace=wrap;html=1;fillColor=none;" vertex="1" parent="1">
          <mxGeometry x="210" y="480" width="422" height="165" as="geometry" />
        </mxCell>
        <mxCell id="FpNi_09DiMc6DCRJbx8O-20" style="edgeStyle=orthogonalEdgeStyle;rounded=0;orthogonalLoop=1;jettySize=auto;html=1;entryX=0;entryY=0.5;entryDx=0;entryDy=0;endArrow=classicThin;endFill=1;" edge="1" parent="1" source="FpNi_09DiMc6DCRJbx8O-2" target="FpNi_09DiMc6DCRJbx8O-7">
          <mxGeometry relative="1" as="geometry" />
        </mxCell>
        <mxCell id="FpNi_09DiMc6DCRJbx8O-2" value="" style="ellipse;whiteSpace=wrap;html=1;aspect=fixed;" vertex="1" parent="1">
          <mxGeometry x="200" y="270" width="30" height="30" as="geometry" />
        </mxCell>
        <mxCell id="FpNi_09DiMc6DCRJbx8O-21" style="edgeStyle=orthogonalEdgeStyle;shape=connector;rounded=0;orthogonalLoop=1;jettySize=auto;html=1;entryX=0;entryY=0.5;entryDx=0;entryDy=0;strokeColor=default;align=center;verticalAlign=middle;fontFamily=Helvetica;fontSize=11;fontColor=default;labelBackgroundColor=default;endArrow=classicThin;endFill=1;" edge="1" parent="1" source="FpNi_09DiMc6DCRJbx8O-5" target="FpNi_09DiMc6DCRJbx8O-9">
          <mxGeometry relative="1" as="geometry" />
        </mxCell>
        <mxCell id="FpNi_09DiMc6DCRJbx8O-5" value="" style="ellipse;whiteSpace=wrap;html=1;aspect=fixed;" vertex="1" parent="1">
          <mxGeometry x="200" y="320" width="30" height="30" as="geometry" />
        </mxCell>
        <mxCell id="FpNi_09DiMc6DCRJbx8O-22" style="edgeStyle=orthogonalEdgeStyle;shape=connector;rounded=0;orthogonalLoop=1;jettySize=auto;html=1;entryX=0;entryY=0.5;entryDx=0;entryDy=0;strokeColor=default;align=center;verticalAlign=middle;fontFamily=Helvetica;fontSize=11;fontColor=default;labelBackgroundColor=default;endArrow=classicThin;endFill=1;" edge="1" parent="1" source="FpNi_09DiMc6DCRJbx8O-6" target="FpNi_09DiMc6DCRJbx8O-10">
          <mxGeometry relative="1" as="geometry" />
        </mxCell>
        <mxCell id="FpNi_09DiMc6DCRJbx8O-6" value="" style="ellipse;whiteSpace=wrap;html=1;aspect=fixed;" vertex="1" parent="1">
          <mxGeometry x="200" y="370" width="30" height="30" as="geometry" />
        </mxCell>
        <mxCell id="FpNi_09DiMc6DCRJbx8O-25" style="edgeStyle=orthogonalEdgeStyle;shape=connector;rounded=0;orthogonalLoop=1;jettySize=auto;html=1;entryX=0.5;entryY=0;entryDx=0;entryDy=0;strokeColor=default;align=center;verticalAlign=middle;fontFamily=Helvetica;fontSize=11;fontColor=default;labelBackgroundColor=default;endArrow=classicThin;endFill=1;" edge="1" parent="1" source="FpNi_09DiMc6DCRJbx8O-7" target="FpNi_09DiMc6DCRJbx8O-13">
          <mxGeometry relative="1" as="geometry">
            <Array as="points">
              <mxPoint x="355" y="285" />
            </Array>
          </mxGeometry>
        </mxCell>
        <mxCell id="FpNi_09DiMc6DCRJbx8O-7" value="" style="rounded=1;whiteSpace=wrap;html=1;" vertex="1" parent="1">
          <mxGeometry x="260" y="265" width="20" height="40" as="geometry" />
        </mxCell>
        <mxCell id="FpNi_09DiMc6DCRJbx8O-23" style="edgeStyle=orthogonalEdgeStyle;shape=connector;rounded=0;orthogonalLoop=1;jettySize=auto;html=1;entryX=0.5;entryY=0;entryDx=0;entryDy=0;strokeColor=default;align=center;verticalAlign=middle;fontFamily=Helvetica;fontSize=11;fontColor=default;labelBackgroundColor=default;endArrow=classicThin;endFill=1;" edge="1" parent="1" source="FpNi_09DiMc6DCRJbx8O-9" target="FpNi_09DiMc6DCRJbx8O-11">
          <mxGeometry relative="1" as="geometry">
            <Array as="points">
              <mxPoint x="316" y="335" />
            </Array>
          </mxGeometry>
        </mxCell>
        <mxCell id="FpNi_09DiMc6DCRJbx8O-9" value="" style="rounded=1;whiteSpace=wrap;html=1;" vertex="1" parent="1">
          <mxGeometry x="260" y="315" width="20" height="40" as="geometry" />
        </mxCell>
        <mxCell id="FpNi_09DiMc6DCRJbx8O-24" style="edgeStyle=orthogonalEdgeStyle;shape=connector;rounded=0;orthogonalLoop=1;jettySize=auto;html=1;entryX=0.5;entryY=1;entryDx=0;entryDy=0;strokeColor=default;align=center;verticalAlign=middle;fontFamily=Helvetica;fontSize=11;fontColor=default;labelBackgroundColor=default;endArrow=classicThin;endFill=1;" edge="1" parent="1" source="FpNi_09DiMc6DCRJbx8O-10" target="FpNi_09DiMc6DCRJbx8O-11">
          <mxGeometry relative="1" as="geometry">
            <Array as="points">
              <mxPoint x="316" y="385" />
            </Array>
          </mxGeometry>
        </mxCell>
        <mxCell id="FpNi_09DiMc6DCRJbx8O-10" value="" style="rounded=1;whiteSpace=wrap;html=1;" vertex="1" parent="1">
          <mxGeometry x="260" y="365" width="20" height="40" as="geometry" />
        </mxCell>
        <mxCell id="FpNi_09DiMc6DCRJbx8O-26" style="edgeStyle=orthogonalEdgeStyle;shape=connector;rounded=0;orthogonalLoop=1;jettySize=auto;html=1;entryX=0;entryY=0.5;entryDx=0;entryDy=0;strokeColor=default;align=center;verticalAlign=middle;fontFamily=Helvetica;fontSize=11;fontColor=default;labelBackgroundColor=default;endArrow=classicThin;endFill=1;" edge="1" parent="1" source="FpNi_09DiMc6DCRJbx8O-11" target="FpNi_09DiMc6DCRJbx8O-12">
          <mxGeometry relative="1" as="geometry" />
        </mxCell>
        <mxCell id="FpNi_09DiMc6DCRJbx8O-11" value="" style="ellipse;whiteSpace=wrap;html=1;aspect=fixed;" vertex="1" parent="1">
          <mxGeometry x="306" y="350" width="20" height="20" as="geometry" />
        </mxCell>
        <mxCell id="FpNi_09DiMc6DCRJbx8O-27" style="edgeStyle=orthogonalEdgeStyle;shape=connector;rounded=0;orthogonalLoop=1;jettySize=auto;html=1;entryX=0.5;entryY=1;entryDx=0;entryDy=0;strokeColor=default;align=center;verticalAlign=middle;fontFamily=Helvetica;fontSize=11;fontColor=default;labelBackgroundColor=default;endArrow=classicThin;endFill=1;" edge="1" parent="1" source="FpNi_09DiMc6DCRJbx8O-12" target="FpNi_09DiMc6DCRJbx8O-13">
          <mxGeometry relative="1" as="geometry" />
        </mxCell>
        <mxCell id="FpNi_09DiMc6DCRJbx8O-31" style="edgeStyle=orthogonalEdgeStyle;shape=connector;rounded=0;orthogonalLoop=1;jettySize=auto;html=1;entryX=0.5;entryY=1;entryDx=0;entryDy=0;strokeColor=default;align=center;verticalAlign=middle;fontFamily=Helvetica;fontSize=11;fontColor=default;labelBackgroundColor=default;endArrow=classicThin;endFill=1;" edge="1" parent="1" source="FpNi_09DiMc6DCRJbx8O-12" target="FpNi_09DiMc6DCRJbx8O-16">
          <mxGeometry relative="1" as="geometry">
            <Array as="points">
              <mxPoint x="470" y="360" />
            </Array>
          </mxGeometry>
        </mxCell>
        <mxCell id="FpNi_09DiMc6DCRJbx8O-12" value="" style="rounded=1;whiteSpace=wrap;html=1;" vertex="1" parent="1">
          <mxGeometry x="346" y="336" width="18" height="48" as="geometry" />
        </mxCell>
        <mxCell id="FpNi_09DiMc6DCRJbx8O-28" style="shape=connector;rounded=0;orthogonalLoop=1;jettySize=auto;html=1;entryX=0;entryY=0.5;entryDx=0;entryDy=0;strokeColor=default;align=center;verticalAlign=middle;fontFamily=Helvetica;fontSize=11;fontColor=default;labelBackgroundColor=default;endArrow=classicThin;endFill=1;exitX=1;exitY=0.5;exitDx=0;exitDy=0;" edge="1" parent="1" source="FpNi_09DiMc6DCRJbx8O-13" target="FpNi_09DiMc6DCRJbx8O-14">
          <mxGeometry relative="1" as="geometry" />
        </mxCell>
        <mxCell id="FpNi_09DiMc6DCRJbx8O-13" value="" style="ellipse;whiteSpace=wrap;html=1;aspect=fixed;" vertex="1" parent="1">
          <mxGeometry x="345" y="297" width="20" height="20" as="geometry" />
        </mxCell>
        <mxCell id="FpNi_09DiMc6DCRJbx8O-29" style="shape=connector;rounded=0;orthogonalLoop=1;jettySize=auto;html=1;entryX=0;entryY=0.5;entryDx=0;entryDy=0;strokeColor=default;align=center;verticalAlign=middle;fontFamily=Helvetica;fontSize=11;fontColor=default;labelBackgroundColor=default;endArrow=classicThin;endFill=1;" edge="1" parent="1" source="FpNi_09DiMc6DCRJbx8O-14" target="FpNi_09DiMc6DCRJbx8O-15">
          <mxGeometry relative="1" as="geometry" />
        </mxCell>
        <mxCell id="FpNi_09DiMc6DCRJbx8O-14" value="" style="ellipse;whiteSpace=wrap;html=1;aspect=fixed;" vertex="1" parent="1">
          <mxGeometry x="381" y="297" width="20" height="20" as="geometry" />
        </mxCell>
        <mxCell id="FpNi_09DiMc6DCRJbx8O-30" style="edgeStyle=orthogonalEdgeStyle;shape=connector;rounded=0;orthogonalLoop=1;jettySize=auto;html=1;entryX=0.5;entryY=0;entryDx=0;entryDy=0;strokeColor=default;align=center;verticalAlign=middle;fontFamily=Helvetica;fontSize=11;fontColor=default;labelBackgroundColor=default;endArrow=classicThin;endFill=1;" edge="1" parent="1" source="FpNi_09DiMc6DCRJbx8O-15" target="FpNi_09DiMc6DCRJbx8O-16">
          <mxGeometry relative="1" as="geometry">
            <Array as="points">
              <mxPoint x="470" y="307" />
            </Array>
          </mxGeometry>
        </mxCell>
        <mxCell id="FpNi_09DiMc6DCRJbx8O-15" value="" style="rounded=1;whiteSpace=wrap;html=1;" vertex="1" parent="1">
          <mxGeometry x="420" y="283" width="18" height="48" as="geometry" />
        </mxCell>
        <mxCell id="FpNi_09DiMc6DCRJbx8O-32" style="edgeStyle=orthogonalEdgeStyle;shape=connector;rounded=0;orthogonalLoop=1;jettySize=auto;html=1;entryX=0;entryY=0.5;entryDx=0;entryDy=0;strokeColor=default;align=center;verticalAlign=middle;fontFamily=Helvetica;fontSize=11;fontColor=default;labelBackgroundColor=default;endArrow=classicThin;endFill=1;" edge="1" parent="1" source="FpNi_09DiMc6DCRJbx8O-16" target="FpNi_09DiMc6DCRJbx8O-17">
          <mxGeometry relative="1" as="geometry" />
        </mxCell>
        <mxCell id="FpNi_09DiMc6DCRJbx8O-35" style="edgeStyle=orthogonalEdgeStyle;shape=connector;rounded=0;orthogonalLoop=1;jettySize=auto;html=1;entryX=0.5;entryY=0;entryDx=0;entryDy=0;strokeColor=default;align=center;verticalAlign=middle;fontFamily=Helvetica;fontSize=11;fontColor=default;labelBackgroundColor=default;endArrow=classicThin;endFill=1;" edge="1" parent="1" source="FpNi_09DiMc6DCRJbx8O-16" target="FpNi_09DiMc6DCRJbx8O-19">
          <mxGeometry relative="1" as="geometry">
            <Array as="points">
              <mxPoint x="490" y="335" />
              <mxPoint x="490" y="305" />
              <mxPoint x="592" y="305" />
            </Array>
          </mxGeometry>
        </mxCell>
        <mxCell id="FpNi_09DiMc6DCRJbx8O-16" value="" style="ellipse;whiteSpace=wrap;html=1;aspect=fixed;" vertex="1" parent="1">
          <mxGeometry x="460" y="325" width="20" height="20" as="geometry" />
        </mxCell>
        <mxCell id="FpNi_09DiMc6DCRJbx8O-33" style="edgeStyle=orthogonalEdgeStyle;shape=connector;rounded=0;orthogonalLoop=1;jettySize=auto;html=1;entryX=0;entryY=0.5;entryDx=0;entryDy=0;strokeColor=default;align=center;verticalAlign=middle;fontFamily=Helvetica;fontSize=11;fontColor=default;labelBackgroundColor=default;endArrow=classicThin;endFill=1;" edge="1" parent="1" source="FpNi_09DiMc6DCRJbx8O-17" target="FpNi_09DiMc6DCRJbx8O-18">
          <mxGeometry relative="1" as="geometry" />
        </mxCell>
        <mxCell id="FpNi_09DiMc6DCRJbx8O-17" value="" style="rounded=1;whiteSpace=wrap;html=1;" vertex="1" parent="1">
          <mxGeometry x="510" y="311" width="18" height="48" as="geometry" />
        </mxCell>
        <mxCell id="FpNi_09DiMc6DCRJbx8O-34" style="edgeStyle=orthogonalEdgeStyle;shape=connector;rounded=0;orthogonalLoop=1;jettySize=auto;html=1;entryX=0;entryY=0.5;entryDx=0;entryDy=0;strokeColor=default;align=center;verticalAlign=middle;fontFamily=Helvetica;fontSize=11;fontColor=default;labelBackgroundColor=default;endArrow=classicThin;endFill=1;" edge="1" parent="1" source="FpNi_09DiMc6DCRJbx8O-18" target="FpNi_09DiMc6DCRJbx8O-19">
          <mxGeometry relative="1" as="geometry" />
        </mxCell>
        <mxCell id="FpNi_09DiMc6DCRJbx8O-18" value="" style="rounded=1;whiteSpace=wrap;html=1;" vertex="1" parent="1">
          <mxGeometry x="550" y="311" width="18" height="48" as="geometry" />
        </mxCell>
        <mxCell id="FpNi_09DiMc6DCRJbx8O-19" value="" style="ellipse;whiteSpace=wrap;html=1;aspect=fixed;" vertex="1" parent="1">
          <mxGeometry x="582" y="325" width="20" height="20" as="geometry" />
        </mxCell>
      </root>
    </mxGraphModel>
  </diagram>
</mxfile>
